<svg xmlns="http://www.w3.org/2000/svg" width="800" height="450" viewBox="0 0 800 450">
  <defs>
    <linearGradient id="bg3" x1="0%" y1="0%" x2="100%" y2="100%">
      <stop offset="0%" style="stop-color:#10b981;stop-opacity:1" />
      <stop offset="100%" style="stop-color:#059669;stop-opacity:1" />
    </linearGradient>
  </defs>
  <rect width="800" height="450" fill="url(#bg3)"/>
  <!-- Workspace folders -->
  <rect x="100" y="100" width="180" height="140" rx="8" fill="white" fill-opacity="0.15"/>
  <rect x="120" y="85" width="60" height="25" rx="4" fill="white" fill-opacity="0.2"/>
  <rect x="130" y="130" width="130" height="10" rx="2" fill="white" fill-opacity="0.5"/>
  <rect x="130" y="150" width="100" height="8" rx="2" fill="white" fill-opacity="0.3"/>
  <rect x="130" y="165" width="120" height="8" rx="2" fill="white" fill-opacity="0.3"/>
  <rect x="130" y="200" width="40" height="20" rx="4" fill="white" fill-opacity="0.3"/>
  <text x="150" y="215" font-family="system-ui, sans-serif" font-size="10" fill="white">3 files</text>
  <text x="190" y="260" font-family="system-ui, sans-serif" font-size="12" fill="white" text-anchor="middle" opacity="0.8">프로젝트 A</text>

  <rect x="310" y="100" width="180" height="140" rx="8" fill="white" fill-opacity="0.15"/>
  <rect x="330" y="85" width="60" height="25" rx="4" fill="white" fill-opacity="0.2"/>
  <rect x="340" y="130" width="130" height="10" rx="2" fill="white" fill-opacity="0.5"/>
  <rect x="340" y="150" width="110" height="8" rx="2" fill="white" fill-opacity="0.3"/>
  <rect x="340" y="165" width="90" height="8" rx="2" fill="white" fill-opacity="0.3"/>
  <rect x="340" y="200" width="40" height="20" rx="4" fill="white" fill-opacity="0.3"/>
  <text x="360" y="215" font-family="system-ui, sans-serif" font-size="10" fill="white">5 files</text>
  <text x="400" y="260" font-family="system-ui, sans-serif" font-size="12" fill="white" text-anchor="middle" opacity="0.8">프로젝트 B</text>

  <rect x="520" y="100" width="180" height="140" rx="8" fill="white" fill-opacity="0.15"/>
  <rect x="540" y="85" width="60" height="25" rx="4" fill="white" fill-opacity="0.2"/>
  <rect x="550" y="130" width="130" height="10" rx="2" fill="white" fill-opacity="0.5"/>
  <rect x="550" y="150" width="120" height="8" rx="2" fill="white" fill-opacity="0.3"/>
  <rect x="550" y="165" width="100" height="8" rx="2" fill="white" fill-opacity="0.3"/>
  <rect x="550" y="200" width="40" height="20" rx="4" fill="white" fill-opacity="0.3"/>
  <text x="570" y="215" font-family="system-ui, sans-serif" font-size="10" fill="white">2 files</text>
  <text x="610" y="260" font-family="system-ui, sans-serif" font-size="12" fill="white" text-anchor="middle" opacity="0.8">프로젝트 C</text>

  <!-- Settings panel -->
  <rect x="250" y="280" width="300" height="90" rx="8" fill="white" fill-opacity="0.15"/>
  <text x="280" y="310" font-family="system-ui, sans-serif" font-size="12" fill="white" font-weight="bold">AI 설정</text>
  <rect x="280" y="325" width="250" height="8" rx="2" fill="white" fill-opacity="0.3"/>
  <text x="290" y="355" font-family="system-ui, sans-serif" font-size="11" fill="white" opacity="0.6" font-style="italic">"프로젝트 자료 정리해줘"</text>

  <text x="400" y="420" font-family="system-ui, sans-serif" font-size="18" fill="white" text-anchor="middle" opacity="0.8">워크스페이스 관리</text>
</svg>