<svg xmlns="http://www.w3.org/2000/svg" width="800" height="450" viewBox="0 0 800 450">
  <defs>
    <linearGradient id="bg4" x1="0%" y1="0%" x2="100%" y2="100%">
      <stop offset="0%" style="stop-color:#14b8a6;stop-opacity:1" />
      <stop offset="100%" style="stop-color:#0d9488;stop-opacity:1" />
    </linearGradient>
  </defs>
  <rect width="800" height="450" fill="url(#bg4)"/>

  <!-- Search bar -->
  <rect x="200" y="80" width="400" height="45" rx="8" fill="white" fill-opacity="0.2"/>
  <circle cx="235" cy="102" r="12" fill="none" stroke="white" stroke-width="2" stroke-opacity="0.6"/>
  <line x1="244" y1="111" x2="255" y2="122" stroke="white" stroke-width="2" stroke-opacity="0.6" stroke-linecap="round"/>
  <text x="270" y="108" font-family="system-ui, sans-serif" font-size="13" fill="white" opacity="0.7">연차 신청 방법 알려줘</text>

  <!-- Document categories -->
  <rect x="100" y="150" width="140" height="100" rx="8" fill="white" fill-opacity="0.15"/>
  <rect x="120" y="170" width="100" height="12" rx="2" fill="white" fill-opacity="0.5"/>
  <rect x="120" y="190" width="80" height="8" rx="2" fill="white" fill-opacity="0.3"/>
  <rect x="120" y="205" width="90" height="8" rx="2" fill="white" fill-opacity="0.3"/>
  <text x="170" y="270" font-family="system-ui, sans-serif" font-size="12" fill="white" text-anchor="middle" opacity="0.8">HR 문서</text>

  <rect x="260" y="150" width="140" height="100" rx="8" fill="white" fill-opacity="0.15"/>
  <rect x="280" y="170" width="100" height="12" rx="2" fill="white" fill-opacity="0.5"/>
  <rect x="280" y="190" width="85" height="8" rx="2" fill="white" fill-opacity="0.3"/>
  <rect x="280" y="205" width="95" height="8" rx="2" fill="white" fill-opacity="0.3"/>
  <text x="330" y="270" font-family="system-ui, sans-serif" font-size="12" fill="white" text-anchor="middle" opacity="0.8">IT 문서</text>

  <rect x="420" y="150" width="140" height="100" rx="8" fill="white" fill-opacity="0.15"/>
  <rect x="440" y="170" width="100" height="12" rx="2" fill="white" fill-opacity="0.5"/>
  <rect x="440" y="190" width="75" height="8" rx="2" fill="white" fill-opacity="0.3"/>
  <rect x="440" y="205" width="85" height="8" rx="2" fill="white" fill-opacity="0.3"/>
  <text x="490" y="270" font-family="system-ui, sans-serif" font-size="12" fill="white" text-anchor="middle" opacity="0.8">안전 문서</text>

  <rect x="580" y="150" width="140" height="100" rx="8" fill="white" fill-opacity="0.15"/>
  <rect x="600" y="170" width="100" height="12" rx="2" fill="white" fill-opacity="0.5"/>
  <rect x="600" y="190" width="90" height="8" rx="2" fill="white" fill-opacity="0.3"/>
  <rect x="600" y="205" width="80" height="8" rx="2" fill="white" fill-opacity="0.3"/>
  <text x="650" y="270" font-family="system-ui, sans-serif" font-size="12" fill="white" text-anchor="middle" opacity="0.8">회계 문서</text>

  <!-- AI RAG indicator -->
  <rect x="250" y="300" width="300" height="70" rx="8" fill="white" fill-opacity="0.15"/>
  <text x="280" y="330" font-family="system-ui, sans-serif" font-size="12" fill="white" font-weight="bold">AI 기반 RAG 검색</text>
  <rect x="280" y="345" width="250" height="8" rx="2" fill="white" fill-opacity="0.3"/>

  <text x="400" y="420" font-family="system-ui, sans-serif" font-size="18" fill="white" text-anchor="middle" opacity="0.8">사내 문서 검색</text>
</svg>