<svg xmlns="http://www.w3.org/2000/svg" width="800" height="450" viewBox="0 0 800 450">
  <defs>
    <linearGradient id="bg5" x1="0%" y1="0%" x2="100%" y2="100%">
      <stop offset="0%" style="stop-color:#8b5cf6;stop-opacity:1" />
      <stop offset="100%" style="stop-color:#7c3aed;stop-opacity:1" />
    </linearGradient>
  </defs>
  <rect width="800" height="450" fill="url(#bg5)"/>

  <!-- LFON WORKS logo area -->
  <rect x="300" y="70" width="200" height="40" rx="6" fill="white" fill-opacity="0.2"/>
  <text x="400" y="97" font-family="system-ui, sans-serif" font-size="16" fill="white" text-anchor="middle" font-weight="bold">LFON WORKS</text>

  <!-- Headset icon -->
  <circle cx="200" cy="200" r="40" fill="none" stroke="white" stroke-width="3" stroke-opacity="0.5"/>
  <path d="M170 200 Q170 170 200 170 Q230 170 230 200" fill="none" stroke="white" stroke-width="3" stroke-opacity="0.5"/>
  <rect x="160" y="195" width="20" height="30" rx="4" fill="white" fill-opacity="0.3"/>
  <rect x="220" y="195" width="20" height="30" rx="4" fill="white" fill-opacity="0.3"/>

  <!-- VOC Cards -->
  <rect x="300" y="140" width="220" height="80" rx="8" fill="white" fill-opacity="0.15"/>
  <rect x="320" y="155" width="80" height="20" rx="4" fill="white" fill-opacity="0.3"/>
  <text x="360" y="170" font-family="system-ui, sans-serif" font-size="11" fill="white" text-anchor="middle">IT VOC</text>
  <text x="320" y="195" font-family="system-ui, sans-serif" font-size="11" fill="white" opacity="0.7">"VPN 접속 오류"</text>
  <rect x="320" y="205" width="150" height="8" rx="2" fill="white" fill-opacity="0.3"/>

  <rect x="540" y="140" width="160" height="80" rx="8" fill="white" fill-opacity="0.15"/>
  <circle cx="580" cy="180" r="25" fill="white" fill-opacity="0.2"/>
  <text x="580" y="185" font-family="system-ui, sans-serif" font-size="18" fill="white" text-anchor="middle">✓</text>
  <text x="640" y="185" font-family="system-ui, sans-serif" font-size="11" fill="white">해결됨</text>

  <rect x="300" y="240" width="220" height="80" rx="8" fill="white" fill-opacity="0.15"/>
  <rect x="320" y="255" width="80" height="20" rx="4" fill="white" fill-opacity="0.3"/>
  <text x="360" y="270" font-family="system-ui, sans-serif" font-size="11" fill="white" text-anchor="middle">회계 VOC</text>
  <rect x="320" y="285" width="180" height="8" rx="2" fill="white" fill-opacity="0.3"/>
  <rect x="320" y="300" width="160" height="8" rx="2" fill="white" fill-opacity="0.3"/>

  <rect x="540" y="240" width="160" height="80" rx="8" fill="white" fill-opacity="0.15"/>
  <circle cx="580" cy="280" r="25" fill="white" fill-opacity="0.2"/>
  <text x="580" y="285" font-family="system-ui, sans-serif" font-size="18" fill="white" text-anchor="middle">⏳</text>
  <text x="640" y="285" font-family="system-ui, sans-serif" font-size="11" fill="white">진행중</text>

  <!-- Real-time indicator -->
  <rect x="300" y="340" width="200" height="30" rx="6" fill="white" fill-opacity="0.2"/>
  <circle cx="325" cy="355" r="6" fill="#22c55e"/>
  <text x="410" y="360" font-family="system-ui, sans-serif" font-size="12" fill="white" text-anchor="middle">실시간 연동</text>

  <text x="400" y="420" font-family="system-ui, sans-serif" font-size="18" fill="white" text-anchor="middle" opacity="0.8">LFON VOC 조회</text>
</svg>