<svg xmlns="http://www.w3.org/2000/svg" width="800" height="450" viewBox="0 0 800 450">
  <defs>
    <linearGradient id="bg6" x1="0%" y1="0%" x2="100%" y2="100%">
      <stop offset="0%" style="stop-color:#ec4899;stop-opacity:1" />
      <stop offset="100%" style="stop-color:#f43f5e;stop-opacity:1" />
    </linearGradient>
  </defs>
  <rect width="800" height="450" fill="url(#bg6)"/>
  <rect x="80" y="80" width="280" height="260" rx="8" fill="white" fill-opacity="0.15"/>
  <rect x="100" y="100" width="100" height="15" rx="2" fill="white" fill-opacity="0.5"/>
  <rect x="100" y="125" width="240" height="8" rx="2" fill="white" fill-opacity="0.3"/>
  <rect x="100" y="140" width="220" height="8" rx="2" fill="white" fill-opacity="0.3"/>
  <rect x="100" y="155" width="200" height="8" rx="2" fill="white" fill-opacity="0.3"/>
  <rect x="100" y="180" width="80" height="12" rx="2" fill="white" fill-opacity="0.4"/>
  <rect x="100" y="200" width="240" height="8" rx="2" fill="white" fill-opacity="0.3"/>
  <rect x="100" y="215" width="230" height="8" rx="2" fill="white" fill-opacity="0.3"/>
  <text x="220" y="310" font-family="system-ui, sans-serif" font-size="14" fill="white" text-anchor="middle" opacity="0.8">PDF 문서</text>
  <rect x="440" y="80" width="280" height="260" rx="8" fill="white" fill-opacity="0.15"/>
  <rect x="470" y="280" width="40" height="40" fill="white" fill-opacity="0.4"/>
  <rect x="520" y="240" width="40" height="80" fill="white" fill-opacity="0.5"/>
  <rect x="570" y="200" width="40" height="120" fill="white" fill-opacity="0.4"/>
  <rect x="620" y="160" width="40" height="160" fill="white" fill-opacity="0.5"/>
  <line x1="460" y1="320" x2="680" y2="320" stroke="white" stroke-opacity="0.5" stroke-width="2"/>
  <text x="580" y="355" font-family="system-ui, sans-serif" font-size="14" fill="white" text-anchor="middle" opacity="0.8">차트</text>
  <text x="400" y="390" font-family="system-ui, sans-serif" font-size="12" fill="white" text-anchor="middle" opacity="0.6" font-style="italic">"월별 매출 차트 만들어줘"</text>
  <text x="400" y="420" font-family="system-ui, sans-serif" font-size="18" fill="white" text-anchor="middle" opacity="0.8">PDF 및 차트 생성</text>
</svg>