<svg xmlns="http://www.w3.org/2000/svg" width="800" height="450" viewBox="0 0 800 450">
  <defs>
    <linearGradient id="bg7" x1="0%" y1="0%" x2="100%" y2="100%">
      <stop offset="0%" style="stop-color:#ef4444;stop-opacity:1" />
      <stop offset="100%" style="stop-color:#dc2626;stop-opacity:1" />
    </linearGradient>
  </defs>
  <rect width="800" height="450" fill="url(#bg7)"/>
  <rect x="80" y="80" width="320" height="180" rx="8" fill="black" fill-opacity="0.3"/>
  <polygon points="220,170 260,145 260,195" fill="white" fill-opacity="0.8"/>
  <text x="80" y="287" font-family="system-ui, sans-serif" font-size="11" fill="white" opacity="0.7">"https://youtu.be/... 요약해줘"</text>
  <rect x="80" y="300" width="280" height="8" rx="2" fill="white" fill-opacity="0.3"/>
  <rect x="80" y="315" width="260" height="8" rx="2" fill="white" fill-opacity="0.3"/>
  <rect x="440" y="80" width="280" height="260" rx="8" fill="white" fill-opacity="0.15"/>
  <text x="480" y="115" font-family="system-ui, sans-serif" font-size="14" fill="white" font-weight="bold">요약</text>
  <rect x="480" y="130" width="220" height="8" rx="2" fill="white" fill-opacity="0.3"/>
  <rect x="480" y="145" width="200" height="8" rx="2" fill="white" fill-opacity="0.3"/>
  <text x="480" y="180" font-family="system-ui, sans-serif" font-size="14" fill="white" font-weight="bold">타임스탬프</text>
  <rect x="480" y="195" width="60" height="20" rx="4" fill="white" fill-opacity="0.2"/>
  <text x="510" y="210" font-family="system-ui, sans-serif" font-size="11" fill="white">0:00</text>
  <rect x="550" y="195" width="150" height="8" rx="2" fill="white" fill-opacity="0.3"/>
  <rect x="480" y="225" width="60" height="20" rx="4" fill="white" fill-opacity="0.2"/>
  <text x="510" y="240" font-family="system-ui, sans-serif" font-size="11" fill="white">3:45</text>
  <rect x="550" y="225" width="140" height="8" rx="2" fill="white" fill-opacity="0.3"/>
  <rect x="480" y="255" width="60" height="20" rx="4" fill="white" fill-opacity="0.2"/>
  <text x="510" y="270" font-family="system-ui, sans-serif" font-size="11" fill="white">7:20</text>
  <rect x="550" y="255" width="130" height="8" rx="2" fill="white" fill-opacity="0.3"/>
  <text x="400" y="420" font-family="system-ui, sans-serif" font-size="18" fill="white" text-anchor="middle" opacity="0.8">YouTube 영상 요약</text>
</svg>