<svg xmlns="http://www.w3.org/2000/svg" width="800" height="450" viewBox="0 0 800 450">
  <defs>
    <linearGradient id="bg8" x1="0%" y1="0%" x2="100%" y2="100%">
      <stop offset="0%" style="stop-color:#10b981;stop-opacity:1" />
      <stop offset="100%" style="stop-color:#059669;stop-opacity:1" />
    </linearGradient>
  </defs>
  <rect width="800" height="450" fill="url(#bg8)"/>
  <!-- Link icon -->
  <g transform="translate(400, 100)">
    <path d="M-20,-15 L-5,-15 A15,15 0 0,1 10,0 A15,15 0 0,1 -5,15 L-20,15" fill="none" stroke="white" stroke-width="4" stroke-opacity="0.7" stroke-linecap="round"/>
    <path d="M20,15 L5,15 A15,15 0 0,1 -10,0 A15,15 0 0,1 5,-15 L20,-15" fill="none" stroke="white" stroke-width="4" stroke-opacity="0.7" stroke-linecap="round"/>
    <line x1="-8" y1="0" x2="8" y2="0" stroke="white" stroke-width="4" stroke-opacity="0.7" stroke-linecap="round"/>
  </g>
  <!-- URL input -->
  <rect x="150" y="140" width="500" height="35" rx="6" fill="white" fill-opacity="0.2"/>
  <text x="170" y="163" font-family="system-ui, sans-serif" font-size="12" fill="white" opacity="0.8">https://github.com/user/repo</text>
  <!-- Web page preview (left) -->
  <rect x="80" y="195" width="280" height="160" rx="8" fill="white" fill-opacity="0.15"/>
  <rect x="100" y="215" width="120" height="12" rx="2" fill="white" fill-opacity="0.5"/>
  <rect x="100" y="235" width="240" height="8" rx="2" fill="white" fill-opacity="0.3"/>
  <rect x="100" y="250" width="220" height="8" rx="2" fill="white" fill-opacity="0.3"/>
  <rect x="100" y="265" width="230" height="8" rx="2" fill="white" fill-opacity="0.3"/>
  <rect x="100" y="290" width="100" height="45" rx="4" fill="white" fill-opacity="0.2"/>
  <rect x="210" y="290" width="130" height="8" rx="2" fill="white" fill-opacity="0.3"/>
  <rect x="210" y="305" width="110" height="8" rx="2" fill="white" fill-opacity="0.3"/>
  <rect x="210" y="320" width="120" height="8" rx="2" fill="white" fill-opacity="0.3"/>
  <!-- Arrow -->
  <polygon points="390,275 420,275 405,260" fill="white" fill-opacity="0.5" transform="rotate(90, 405, 275)"/>
  <!-- Summary panel (right) -->
  <rect x="440" y="195" width="280" height="160" rx="8" fill="white" fill-opacity="0.15"/>
  <text x="460" y="220" font-family="system-ui, sans-serif" font-size="14" fill="white" font-weight="bold">핵심 내용</text>
  <circle cx="470" cy="245" r="4" fill="white" fill-opacity="0.5"/>
  <rect x="485" y="240" width="200" height="8" rx="2" fill="white" fill-opacity="0.4"/>
  <circle cx="470" cy="265" r="4" fill="white" fill-opacity="0.5"/>
  <rect x="485" y="260" width="180" height="8" rx="2" fill="white" fill-opacity="0.4"/>
  <circle cx="470" cy="285" r="4" fill="white" fill-opacity="0.5"/>
  <rect x="485" y="280" width="190" height="8" rx="2" fill="white" fill-opacity="0.4"/>
  <text x="460" y="315" font-family="system-ui, sans-serif" font-size="14" fill="white" font-weight="bold">요약</text>
  <rect x="460" y="325" width="240" height="8" rx="2" fill="white" fill-opacity="0.3"/>
  <rect x="460" y="340" width="220" height="8" rx="2" fill="white" fill-opacity="0.3"/>
  <!-- Bottom title -->
  <text x="400" y="420" font-family="system-ui, sans-serif" font-size="18" fill="white" text-anchor="middle" opacity="0.8">웹 페이지 요약</text>
</svg>
